# xmcd
# 
# Track frame offsets:
#     150
#     34698
#     69671
#     84426
#     102943
#     149081
# 
# Disc length: 2384
# 
# Revision: 3
# Processed by: cddbd v1.5.2PL0 Copyright (c) Steve Scherf et al.
# Submitted via: fre:ac v1.1beta1pre5
# 
DISCID=50094e06
DTITLE=Jean Michel Jarre - Oxygene
DYEAR=1976
DGENRE=Electronic
TTITLE0=Oxygene (Part 1)
TTITLE1=Oxygene (Part 2)
TTITLE2=Oxygene (Part 3)
TTITLE3=Oxygene (Part 4)
TTITLE4=Oxygene (Part 5)
TTITLE5=Oxygene (Part 6)
EXTD=
EXTT0=
EXTT1=
EXTT2=
EXTT3=
EXTT4=
EXTT5=
PLAYORDER=
